<?xml version="1.0" encoding="UTF-8" standalone="no"?>
<svg
   version="1.1"
   width="1024"
   height="1024"
   id="svg213"
   sodipodi:docname="logo-orange3.svg"
   inkscape:version="1.4.3 (0d15f75, 2025-12-25)"
   xmlns:inkscape="http://www.inkscape.org/namespaces/inkscape"
   xmlns:sodipodi="http://sodipodi.sourceforge.net/DTD/sodipodi-0.dtd"
   xmlns="http://www.w3.org/2000/svg"
   xmlns:svg="http://www.w3.org/2000/svg">
  <defs
     id="defs213" />
  <sodipodi:namedview
     id="namedview213"
     pagecolor="#ffffff"
     bordercolor="#000000"
     borderopacity="0.25"
     inkscape:showpageshadow="2"
     inkscape:pageopacity="0.0"
     inkscape:pagecheckerboard="0"
     inkscape:deskcolor="#d1d1d1"
     inkscape:zoom="0.80585314"
     inkscape:cx="297.82102"
     inkscape:cy="526.77092"
     inkscape:window-width="2560"
     inkscape:window-height="1369"
     inkscape:window-x="-8"
     inkscape:window-y="-8"
     inkscape:window-maximized="1"
     inkscape:current-layer="svg213" />
  <path
     d="M0 0 C337.92 0 675.84 0 1024 0 C1024 337.92 1024 675.84 1024 1024 C686.08 1024 348.16 1024 0 1024 C0 686.08 0 348.16 0 0 Z "
     fill="#FDE0C0"
     id="path1"
     style="fill:#f29400;fill-opacity:1"
     transform="translate(0,0)" />
  <path
     d="M0 0 C0.33 0 0.66 0 1 0 C1.32509025 67.98661706 1.37646927 135.69561435 -8 203.1875 C-8.11952026 204.05180634 -8.23904053 204.91611267 -8.36218262 205.80661011 C-12.9619444 238.64800918 -20.38541166 271.05320426 -35 301 C-35.34643555 301.71736328 -35.69287109 302.43472656 -36.04980469 303.17382812 C-51.42048402 334.64645424 -74.41875862 356.55758675 -107.44140625 368.21484375 C-110.60797035 369.24446275 -113.78190452 370.1460582 -117 371 C-118.54300781 371.44859375 -118.54300781 371.44859375 -120.1171875 371.90625 C-140.36868063 376.95743073 -164.48479308 375.14319848 -184.875 371.4375 C-185.67035156 371.29892578 -186.46570313 371.16035156 -187.28515625 371.01757812 C-189.19119935 370.68459469 -191.09578386 370.34327706 -193 370 C-160.99347995 386.61877003 -124.37079228 390.2003745 -89.6015625 379.7265625 C-87.19010144 378.95465129 -84.8272564 378.12100507 -82.44921875 377.24609375 C-79.57367581 376.20725094 -76.71312858 375.2926455 -73.78442383 374.42211914 C-72.88742264 374.15492569 -71.99042145 373.88773224 -71.0662384 373.61244202 C-70.38437973 373.41033615 -69.70252106 373.20823029 -69 373 C-68.94695457 374.96626091 -68.94695457 374.96626091 -68.89283752 376.97224426 C-68.55720428 389.40153998 -68.21899968 401.8307635 -67.87835789 414.25992298 C-67.7033642 420.64793914 -67.52923728 427.03597635 -67.35717773 433.42407227 C-67.1907097 439.60333249 -67.02185189 445.78252343 -66.85142326 451.96167564 C-66.78721123 454.30441721 -66.72382147 456.64718148 -66.66131783 458.98996925 C-66.32963844 471.40120638 -65.92097087 483.79546267 -65.20521545 496.19099426 C-64.95924879 500.75638361 -64.84887987 505.30397782 -64.875 509.875 C-64.87113281 510.60589844 -64.86726563 511.33679688 -64.86328125 512.08984375 C-64.8702755 515.94367475 -65.2359403 519.17970149 -66 523 C-182.16 523 -298.32 523 -418 523 C-416.85141413 479.35373684 -416.85141413 479.35373684 -415.84375 460.51171875 C-415.73501569 458.40633972 -415.62675316 456.30093629 -415.5189209 454.19551086 C-415.24063463 448.78189619 -414.95703733 443.36857535 -414.67181396 437.95532227 C-414.21518496 429.27044946 -413.76682708 420.58514261 -413.31835938 411.89984512 C-413.21097799 409.82114758 -413.10339599 407.74246039 -412.99560547 405.66378403 C-412.22451608 390.77915155 -411.51882439 375.8958742 -411 361 C-410.42699661 361.2078009 -409.85399323 361.41560181 -409.2636261 361.62969971 C-380.96650477 371.84994738 -349.70193295 378.26004764 -320 370 C-319.34 369.67 -318.68 369.34 -318 369 C-319.18851563 368.96261719 -320.37703125 368.92523437 -321.6015625 368.88671875 C-367.53169238 367.17987166 -404.36932895 352.82154004 -436 319 C-438.82260751 315.77199105 -441.43667647 312.4363763 -444 309 C-444.74378906 308.03449219 -445.48757813 307.06898438 -446.25390625 306.07421875 C-457.13784299 291.65100674 -465.40663603 275.41056825 -473.5 259.3125 C-473.98001465 258.35811035 -474.4600293 257.4037207 -474.95458984 256.42041016 C-478.26683022 249.7272397 -481.19520418 242.91940062 -484 236 C-484.3393457 235.18168701 -484.67869141 234.36337402 -485.02832031 233.52026367 C-495.54381738 208.02790744 -507.58209529 173.35130274 -497 146 C-495.52370268 142.54971422 -493.79478724 139.29362551 -492 136 C-491.27296875 134.51113281 -491.27296875 134.51113281 -490.53125 132.9921875 C-478.01512962 108.01683819 -460.42235126 83.9202972 -442 63 C-441.27683594 62.14277344 -440.55367188 61.28554688 -439.80859375 60.40234375 C-425.84187725 44.17214465 -408.13727526 32.2901338 -388 25 C-386.42992187 24.41025391 -386.42992187 24.41025391 -384.828125 23.80859375 C-349.45453236 10.80839092 -349.45453236 10.80839092 -334 10 C-332.83210937 9.93554688 -331.66421875 9.87109375 -330.4609375 9.8046875 C-319.60144571 9.47824987 -311.35351691 11.2862696 -302.8125 18.19140625 C-294.05267985 26.93234748 -290.64476358 39.56006455 -290.5 51.625 C-290.76130746 71.86229112 -296.40293304 88.5870402 -311 103 C-311.54011719 103.56203125 -312.08023438 104.1240625 -312.63671875 104.703125 C-327.23424963 118.6755727 -353.07925472 124.53116106 -372.5390625 124.1875 C-381.24197947 123.71601014 -388.41916425 122.37355908 -396 118 C-395.80528889 119.94999129 -395.80528889 119.94999129 -395 122 C-393.21352845 123.17526993 -393.21352845 123.17526993 -391 124 C-390.24203125 124.4021875 -389.4840625 124.804375 -388.703125 125.21875 C-387.89359375 125.6415625 -387.0840625 126.064375 -386.25 126.5 C-385.45078125 126.9228125 -384.6515625 127.345625 -383.828125 127.78125 C-377.14829784 130.65984955 -370.67972982 131.34435909 -363.5 131.625 C-362.26636719 131.68300781 -362.26636719 131.68300781 -361.0078125 131.7421875 C-359.0055299 131.83531692 -357.00279738 131.91868985 -355 132 C-367.50463943 144.85503213 -389.21260639 157.27801554 -407.5625 158.1171875 C-409.70867837 158.12389431 -411.85489181 158.06809867 -414 158 C-414 158.66 -414 159.32 -414 160 C-393.84522222 160.74341393 -377.71113733 156.78793058 -359.26953125 148.8203125 C-354.66810365 147.1571459 -350.67409031 148.23062017 -346.390625 150.19921875 C-343.54727576 151.72932618 -340.77239732 153.345128 -338 155 C-337.1853125 155.45503906 -336.370625 155.91007813 -335.53125 156.37890625 C-319.84640411 165.31621292 -305.8835562 177.6586473 -295 192 C-294.59394531 192.52577637 -294.18789063 193.05155273 -293.76953125 193.59326172 C-282.73858532 207.95470478 -270.6425081 227.41042118 -271 246 C-270.34 246 -269.68 246 -269 246 C-270.84782719 214.98506453 -280.58435152 185.61036038 -304 164 C-304.78375 163.175 -305.5675 162.35 -306.375 161.5 C-312.95170905 155.23646757 -319.88882475 150.07610493 -328 146 C-328.91910156 145.53335938 -329.83820313 145.06671875 -330.78515625 144.5859375 C-333.18414047 143.37801015 -335.58865805 142.18301745 -338 141 C-335.63614581 138.30094354 -333.36677344 137.1157191 -330.0625 135.765625 C-329.08974121 135.35981201 -328.11698242 134.95399902 -327.11474609 134.53588867 C-325.57294678 133.89937378 -325.57294678 133.89937378 -324 133.25 C-313.45760309 128.78085184 -303.94402958 124.45654761 -296 116 C-295.34 116 -294.68 116 -294 116 C-293.74992188 115.43925781 -293.49984375 114.87851562 -293.2421875 114.30078125 C-291.31922376 110.73906538 -288.65902779 107.82609977 -286.0703125 104.73046875 C-284.42240842 102.55710092 -283.37233863 100.77279719 -282.19140625 98.37109375 C-280.00322652 94.43162159 -276.97494822 93.21352294 -272.8125 91.875 C-271.46832489 91.3941238 -270.12585926 90.90844206 -268.78515625 90.41796875 C-268.13691895 90.18384277 -267.48868164 89.9497168 -266.82080078 89.70849609 C-263.60538914 88.45733967 -260.68663441 86.74839153 -257.734375 84.98046875 C-256 84 -256 84 -253 83 C-252.69707031 84.12277344 -252.39414062 85.24554687 -252.08203125 86.40234375 C-248.83439745 98.25798478 -248.83439745 98.25798478 -243 109 C-242.45988281 109.81726563 -241.91976563 110.63453125 -241.36328125 111.4765625 C-232.57434164 123.67421034 -218.54862798 129.87522619 -204.00878906 132.3371582 C-187.18292141 134.61285476 -171.32488131 132.80010593 -157 123 C-154.26763981 120.73702571 -151.65977537 118.40251285 -149.09375 115.953125 C-147 114 -147 114 -144 112 C-143.56429688 112.64066406 -143.12859375 113.28132812 -142.6796875 113.94140625 C-134.48198841 125.84758826 -127.18463952 134.33834262 -112.3984375 137.53125 C-92.56766682 140.26652871 -74.51651239 135.38417868 -58.1875 123.875 C-46.42260147 113.88043858 -39.95619942 100.9202416 -34 87 C-33.54028809 85.93442871 -33.08057617 84.86885742 -32.60693359 83.77099609 C-26.87370546 70.45185602 -21.22880748 57.09845475 -16.1875 43.5 C-14.01664998 37.66374246 -11.77728591 31.85797306 -9.5 26.0625 C-6.12131624 17.44770155 -3.02214423 8.74539904 0 0 Z "
     fill="#FBFCFB"
     id="path3"
     transform="translate(767,461)" />
  <path
     d="M0 0 C1.00820801 0.01135986 2.01641602 0.02271973 3.05517578 0.03442383 C10.87492841 0.23762416 17.49242285 1.26912341 24.6875 4.5 C25.48800781 4.850625 26.28851563 5.20125 27.11328125 5.5625 C40.70566362 12.32347776 48.44575682 23.7317976 53.52734375 37.63671875 C58.01936737 51.73470447 59.44528697 66.82395099 60.6875 81.5 C60.7697904 82.43317362 60.8520808 83.36634724 60.93686485 84.32779884 C63.02783729 108.70603413 63.08323312 133.08103226 63.19101167 157.53280234 C63.21269749 162.24223515 63.23981894 166.95163136 63.26672095 171.66103679 C63.3299429 182.77553883 63.38325395 193.89005783 63.43041992 205.00463867 C63.47902786 216.41119343 63.54598544 227.81754028 63.62158471 239.22394532 C63.68624552 249.08968915 63.73883486 258.95544946 63.7820732 268.82131034 C63.80791813 274.68286633 63.83827017 280.54430547 63.88062477 286.40576744 C63.9199285 291.90952828 63.94402428 297.41315984 63.95700836 302.91704369 C63.96418183 304.91997378 63.97647696 306.92289412 63.99465752 308.92575455 C64.10713042 321.75674362 63.09773706 333.89419128 60.6875 346.5 C60.46736646 347.68682216 60.24723291 348.87364431 60.02042866 350.09643078 C59.28136339 354.01557941 58.47868797 357.91782205 57.63696289 361.81616211 C56.47492634 367.26168731 55.52167693 372.60627309 54.95703125 378.1484375 C53.16015338 393.33234074 53.16015338 393.33234074 48.76757812 397.18310547 C43.91003205 399.97650611 38.67520135 401.36400969 33.27929688 402.74902344 C29.30844713 403.89958239 25.76820483 405.69794224 22.125 407.625 C21.14019653 408.13401855 21.14019653 408.13401855 20.13549805 408.65332031 C18.31622038 409.59591289 16.50171012 410.54769037 14.6875 411.5 C13.74003906 411.96664063 12.79257812 412.43328125 11.81640625 412.9140625 C-6.96904072 422.46030747 -23.57769945 437.89703518 -36.3125 454.5 C-37.68582985 456.18885949 -39.060808 457.87638008 -40.4375 459.5625 C-43.82552241 463.79243579 -46.93222063 468.17384604 -49.96484375 472.6640625 C-50.40957031 473.26992188 -50.85429687 473.87578125 -51.3125 474.5 C-51.6425 474.5 -51.9725 474.5 -52.3125 474.5 C-52.58743979 469.10436834 -52.85744481 463.70850199 -53.125 458.3125 C-53.16785126 457.44929138 -53.21070251 456.58608276 -53.25485229 455.69671631 C-53.91144732 442.40010442 -54.50979881 429.10140541 -55.078125 415.80078125 C-55.14454215 414.25045249 -55.21096366 412.70012392 -55.27738953 411.14979553 C-55.5762528 404.16507564 -55.87318877 397.18028616 -56.16422081 390.19523525 C-56.28783278 387.24056491 -56.41358025 384.28598779 -56.53977203 381.33142662 C-56.59818919 379.95193201 -56.65566265 378.57239705 -56.71208954 377.1928196 C-57.00037037 370.15109143 -57.39931741 363.15432194 -58.08262634 356.14007568 C-58.49089457 351.45115645 -58.64355291 346.75338999 -58.8125 342.05078125 C-58.85310547 340.9944902 -58.89371094 339.93819916 -58.93554688 338.84989929 C-59.06391267 335.50419594 -59.188552 332.15836971 -59.3125 328.8125 C-59.90068533 312.12474314 -59.90068533 312.12474314 -60.81640625 295.453125 C-61.46254136 285.75291138 -61.78038275 276.04132349 -62.12817383 266.3265686 C-62.33869517 260.47009902 -62.55840562 254.61397248 -62.77734375 248.7578125 C-62.82176605 247.56720718 -62.86618835 246.37660187 -62.91195679 245.1499176 C-63.32220992 234.18097814 -63.74190357 223.21249427 -64.19290161 212.24514771 C-64.27068953 210.33772594 -64.34684782 208.43023677 -64.42111206 206.52267456 C-64.78985367 197.07925813 -65.27345954 187.67067266 -66.07748413 178.25331116 C-67.40259193 162.61870642 -67.70949345 147.06133829 -67.6875 131.375 C-67.68761244 130.02778117 -67.68773461 128.68056234 -67.68786621 127.33334351 C-67.6734143 107.44062705 -67.02160136 88.08677153 -63.3125 68.5 C-63.1470166 67.56913574 -62.9815332 66.63827148 -62.81103516 65.67919922 C-59.08362021 45.04353096 -50.0459419 23.06010683 -32.81640625 10.14453125 C-29.88078984 8.2164587 -26.98616132 6.70122999 -23.70996094 5.44165039 C-22.14977652 4.82885698 -20.60533192 4.17379346 -19.08325195 3.47167969 C-12.60399305 0.57102239 -7.05707971 -0.13537203 0 0 Z "
     fill="#FDFDFD"
     id="path4"
     transform="translate(340.3125,65.5)" />
  <path
     d="M0 0 C0.82886719 0.43054688 1.65773438 0.86109375 2.51171875 1.3046875 C11.73636367 6.40650906 18.62798334 13.88395001 22 24 C24.3663199 44.417362 17.92667341 64.80770892 11.875 84.09008789 C10.74151771 87.85961229 9.89874973 91.64379112 9.125 95.5 C7.72736171 102.11146765 6.03425911 108.58106776 4.125 115.0625 C1.49193827 124.01725187 -0.74624959 133.03356796 -2.89013672 142.11669922 C-4.78059508 150.12224971 -6.8143719 158.06950916 -9 166 C-10.00169422 169.64537016 -11.00139204 173.29128324 -12 176.9375 C-12.26039063 177.88633057 -12.52078125 178.83516113 -12.7890625 179.81274414 C-14.2697786 185.23409073 -15.67470514 190.66368076 -17 196.125 C-29.63241101 247.0705259 -29.63241101 247.0705259 -46.88671875 258.7578125 C-58.86784943 265.80032554 -69.8558358 267.81653857 -83.62109375 265.3515625 C-95.21704258 262.09411709 -105.05455889 256.13376274 -111.36328125 245.7578125 C-117.91559168 233.6582658 -119.69703541 220.48517705 -117 207 C-116.68530762 206.08226807 -116.37061523 205.16453613 -116.04638672 204.21899414 C-114.98201041 200.94465872 -114.27537982 197.75238199 -113.6328125 194.37109375 C-113.38909912 193.09935303 -113.14538574 191.8276123 -112.89428711 190.51733398 C-112.63785123 189.15739061 -112.38142234 187.79744592 -112.125 186.4375 C-111.85661392 185.03255455 -111.58781154 183.62768857 -111.31860352 182.22290039 C-110.16115159 176.17243472 -109.01953848 170.11908933 -107.89453125 164.0625 C-105.73902671 152.49254404 -103.25312087 141.02785817 -100.59375 129.56347656 C-96.2061464 110.62028668 -92.2611575 91.57939292 -88.95288086 72.41699219 C-87.9647339 66.71401321 -86.84331161 61.08411103 -85.31640625 55.5 C-83.57046474 48.98664307 -82.47270528 42.54472406 -81.5625 35.875 C-79.78425796 23.34642405 -76.24464411 12.284382 -66.34765625 3.69921875 C-46.9300466 -10.87064748 -21.16387111 -11.57335973 0 0 Z "
     fill="#FDFDFD"
     transform="translate(648,310)"
     id="path5" />
  <path
     d="M0 0 C10.20552829 8.63960067 16.00158048 20.36283437 17.53417969 33.6418457 C17.6882965 36.47714172 17.73312569 39.28560032 17.71484375 42.125 C17.71057373 43.16003662 17.70630371 44.19507324 17.7019043 45.26147461 C17.48137743 55.53584455 15.41904721 65.11075064 12.91601562 75.03808594 C11.76614284 79.69042638 10.77853362 84.37634703 9.77734375 89.0625 C9.36254329 90.97538283 8.94716748 92.88814098 8.53125 94.80078125 C8.09236616 96.82550311 7.65356755 98.85024345 7.21484375 100.875 C6.97620605 101.97505371 6.73756836 103.07510742 6.49169922 104.20849609 C3.57125245 117.68821292 0.72393457 131.17766045 -1.95874023 144.70678711 C-3.38901532 151.91562638 -4.85123531 159.11709011 -6.34765625 166.3125 C-6.55511475 167.31007324 -6.76257324 168.30764648 -6.97631836 169.33544922 C-8.22923605 175.32111608 -9.54972349 181.2880069 -10.91015625 187.25 C-12.46159183 194.05321824 -13.69846401 200.87813964 -14.74658203 207.77685547 C-15.4443569 212.27027602 -16.51265163 216.50076537 -17.78515625 220.875 C-18.26397537 223.3085587 -18.72192703 225.74630545 -19.16015625 228.1875 C-21.62071412 240.90194759 -26.75867165 252.28087035 -36.78515625 260.875 C-37.44515625 260.875 -38.10515625 260.875 -38.78515625 260.875 C-38.78515625 261.535 -38.78515625 262.195 -38.78515625 262.875 C-39.44515625 262.875 -40.10515625 262.875 -40.78515625 262.875 C-40.77468262 262.32263672 -40.76420898 261.77027344 -40.75341797 261.20117188 C-40.37294125 237.94874645 -41.3642965 215.09515592 -58.09765625 197.0625 C-69.27432309 186.56702956 -81.09755526 184.69556457 -95.84765625 184.6875 C-96.99943359 184.67525391 -98.15121094 184.66300781 -99.33789062 184.65039062 C-107.32780629 184.63694713 -114.92819102 185.43660734 -122.78515625 186.875 C-122.41708617 181.16667364 -121.83635247 175.69095575 -120.47265625 170.125 C-119.00353966 164.12078437 -117.92966357 158.09569827 -116.91015625 152 C-115.59641618 144.19498773 -114.09087053 136.47014252 -112.34765625 128.75 C-110.08777494 118.70192548 -108.30019821 108.60291598 -106.59448242 98.44750977 C-105.25836245 90.52000537 -103.78238308 82.63925816 -102.16162109 74.765625 C-101.10410749 69.58841552 -100.18524817 64.40445096 -99.34765625 59.1875 C-98.97494951 56.93529727 -98.59748921 54.68397235 -98.21679688 52.43310547 C-97.90652768 50.59430424 -97.60111572 48.75468098 -97.29882812 46.91455078 C-94.24704729 28.69113996 -90.37035412 9.62903996 -74.375 -1.85546875 C-71.89503367 -3.40784334 -69.38821163 -4.79083212 -66.78515625 -6.125 C-66.06585938 -6.51558594 -65.3465625 -6.90617187 -64.60546875 -7.30859375 C-44.87715858 -17.17274884 -17.2190893 -12.94920168 0 0 Z "
     fill="#FDFDFD"
     transform="translate(535.78515625,268.125)"
     id="path6" />
  <path
     d="M0 0 C7.80332775 6.47232536 13.04720009 14.16220431 14.6484375 24.25 C15.1042238 30.73733231 14.18531533 36.35862805 12.3359375 42.5625 C12.07449951 43.45783447 11.81306152 44.35316895 11.54370117 45.27563477 C8.48441184 55.35646859 4.5126787 65.07321498 0.5859375 74.83984375 C-2.44969305 82.41983745 -5.25881934 90.07339046 -8.0390625 97.75 C-11.60996975 107.58504025 -15.30639475 117.34627963 -19.24609375 127.0390625 C-22.37768607 134.74783303 -25.38327518 142.50719262 -28.40820312 150.25830078 C-30.564691 155.76747814 -32.74303841 161.2669164 -34.984375 166.7421875 C-35.36352051 167.6688623 -35.74266602 168.59553711 -36.13330078 169.55029297 C-42.87875317 184.49843176 -53.40472942 194.09431433 -68.3515625 200.25 C-76.59128509 202.66259244 -88.73670122 202.94048213 -96.6640625 199.5625 C-105.26836724 194.68956702 -111.11694297 187.97315143 -113.91015625 178.4921875 C-115.20624957 171.90849221 -112.70328111 166.06053354 -110.578125 159.9296875 C-106.01877104 146.25162561 -102.53409604 132.22001412 -98.95776367 118.26147461 C-96.97432886 110.55308847 -94.85148519 102.89886036 -92.62548828 95.25756836 C-90.18362879 86.80841001 -88.00587641 78.29456596 -85.81860352 69.77661133 C-84.09855991 63.09127626 -82.31519749 56.44126863 -80.375 49.81640625 C-79.27311383 45.97662733 -78.23089857 42.12338656 -77.1940918 38.265625 C-76.17076468 34.47338932 -75.12551415 30.68737081 -74.07763672 26.90185547 C-73.41221998 24.47154054 -72.7731174 22.03568304 -72.13671875 19.59765625 C-69.36642972 9.40686681 -65.30102822 2.37061456 -56.3515625 -3.625 C-38.52113154 -13.76387251 -16.30051266 -12.13061407 0 0 Z "
     fill="#FCFCFC"
     transform="translate(749.3515625,379.75)"
     id="path7" />
  <path
     d="M0 0 C0.66 0 1.32 0 2 0 C2.81350483 2.74970636 3.62584054 5.49974893 4.4375 8.25 C4.66759766 9.02730469 4.89769531 9.80460938 5.13476562 10.60546875 C5.35712891 11.35957031 5.57949219 12.11367188 5.80859375 12.890625 C6.11494751 13.92751465 6.11494751 13.92751465 6.42749023 14.98535156 C6.99464254 16.98114721 7.50798004 18.98449654 8 21 C7.01 21 6.02 21 5 21 C4.90203125 21.67804687 4.8040625 22.35609375 4.703125 23.0546875 C2.72896668 35.34212117 -1.67304862 44.69160315 -10 54 C-11.485 54.495 -11.485 54.495 -13 55 C-13.33 55.99 -13.66 56.98 -14 58 C-18.45714286 62 -18.45714286 62 -21 62 C-21 62.66 -21 63.32 -21 64 C-27.32317375 69.27460724 -35.19699092 71.62338857 -42.92919922 73.99511719 C-47.36452261 75.2808446 -47.36452261 75.2808446 -51 78 C-52.25103516 77.00419922 -52.25103516 77.00419922 -53.52734375 75.98828125 C-59.76458201 71.07344538 -65.85533548 66.53446301 -73 63 C-73.91523438 62.5359375 -74.83046875 62.071875 -75.7734375 61.59375 C-78.17595753 60.38239536 -80.58444263 59.18508556 -83 58 C-80.63614581 55.30094354 -78.36677344 54.1157191 -75.0625 52.765625 C-74.08974121 52.35981201 -73.11698242 51.95399902 -72.11474609 51.53588867 C-71.08687988 51.11154541 -70.05901367 50.68720215 -69 50.25 C-58.45760309 45.78085184 -48.94402958 41.45654761 -41 33 C-40.34 33 -39.68 33 -39 33 C-38.74992187 32.43925781 -38.49984375 31.87851562 -38.2421875 31.30078125 C-36.31922376 27.73906538 -33.65902779 24.82609977 -31.0703125 21.73046875 C-29.42240842 19.55710092 -28.37233863 17.77279719 -27.19140625 15.37109375 C-25.00315681 11.43149609 -21.9749173 10.21384687 -17.8125 8.875 C-16.47096311 8.39401947 -15.1311031 7.90833591 -13.79296875 7.41796875 C-13.14505371 7.18384277 -12.49713867 6.9497168 -11.82958984 6.70849609 C-7.820177 5.15587852 -3.08536234 3.08536234 0 0 Z "
     fill="#EBEBEB"
     transform="translate(512,544)"
     id="path8" />
  <path
     d="M0 0 C4.05989798 3.41400512 6.39881445 7.6101289 8.75 12.3125 C9.04518568 15.84739938 9.02809722 19.3917206 9.0625 22.9375 C9.09150391 23.91074219 9.12050781 24.88398437 9.15039062 25.88671875 C9.20580981 32.22155768 8.55214749 37.11111863 4.75 42.3125 C2.3125 44.58984375 2.3125 44.58984375 -0.25 46.25 C-1.095625 46.81589844 -1.94125 47.38179687 -2.8125 47.96484375 C-9.61653053 51.72668755 -18.68704625 51.12214087 -26.25 50.3125 C-33.54845582 48.20262192 -37.60843574 41.61142196 -41.25 35.3125 C-43.84780385 29.59908681 -44.69954433 24.47382035 -42.58496094 18.40332031 C-38.60742804 8.71989434 -34.00353613 0.61742194 -24.3125 -4.125 C-15.27483324 -5.78497961 -8.1005647 -4.20606244 0 0 Z "
     fill="#2E2D2E"
     transform="translate(588.25,507.6875)"
     id="path9"
     style="fill:#f29400;fill-opacity:1" />
  <path
     d="M0 0 C5.50688735 3.30179898 9.55920331 7.99769472 12.0625 13.875 C13.83877692 25.32211795 11.2980296 33.66834855 5.359375 43.62109375 C2.47068149 47.48231407 -0.82364871 49.15697831 -5.375 50.5 C-14.11693739 51.44143941 -24.96632464 50.50085587 -32.375 45.5 C-36.84657665 39.8691257 -39.06283472 31.9007787 -38.7890625 24.7578125 C-37.58374177 18.18540326 -33.16672868 12.88747275 -28.77734375 8.0625 C-27.20227472 6.36122316 -27.20227472 6.36122316 -25.375 3.75 C-19.24529058 -3.1459231 -8.22309766 -3.61366597 0 0 Z "
     fill="#2D2D2D"
     transform="translate(680.375,518.5)"
     id="path10"
     style="fill:#f29400;fill-opacity:1" />
  <path
     d="M0 0 C4.51844805 -0.38098213 4.51844805 -0.38098213 6.58984375 1.2578125 C13.91649042 11.40893455 21.90519109 27.08703818 20 40 C15.01190087 50.1128585 -0.56336558 56.954103 -10.546875 60.9609375 C-17.79635512 63.14234215 -24.90490441 63.44532935 -31.8125 60.0625 C-41.33160496 53.87944834 -48.57537416 43.56702339 -51.48828125 32.65625 C-52.37497509 28.0535644 -52.80854294 23.64163542 -52 19 C-49.57637299 15.70117434 -46.94210965 13.27164827 -43 12 C-40.75 12.375 -40.75 12.375 -39 13 C-39.33 13.66 -39.66 14.32 -40 15 C-41.29789703 24.14090338 -38.45818972 32.95844778 -33.28515625 40.5 C-30.3611736 43.98062705 -27.32927785 47.41611786 -23 49 C-16.10275223 48.71007144 -11.01834057 46.45144182 -4.9375 43.3125 C-4.07833984 42.89033203 -3.21917969 42.46816406 -2.33398438 42.03320312 C3.13532268 39.26303462 7.50280453 36.1676859 12 32 C9.4034284 21.27594818 5.58223601 11.51047616 0 2 C0 1.34 0 0.68 0 0 Z "
     fill="#2D2D2E"
     transform="translate(436,479)"
     id="path11"
     style="fill:#f29400;fill-opacity:1" />
  <path
     d="M0 0 C0.33 0 0.66 0 1 0 C1.88506807 20.57783271 -0.52053326 39.3861191 -14.5 55.4375 C-15.98164207 56.97622376 -17.4799922 58.49916347 -19 60 C-19.54011719 60.56203125 -20.08023438 61.1240625 -20.63671875 61.703125 C-35.23712195 75.67832202 -61.06221807 81.51504072 -80.5234375 81.19140625 C-94.86237071 80.40195937 -94.86237071 80.40195937 -100 76 C-96.6881818 74.3440909 -92.96100108 74.70195571 -89.3125 74.5625 C-72.68765444 73.95244598 -72.68765444 73.95244598 -57 69 C-55.65065081 68.72518346 -54.29561288 68.47758904 -52.9375 68.25 C-37.89772194 65.22133557 -23.77494733 54.91991782 -15.28710938 42.45825195 C-9.19274935 33.09254513 -6.13018909 24.91408645 -4 14 C-3.48175828 12.4428976 -2.92792702 10.89631257 -2.3125 9.375 C-1.08054386 6.20711277 -0.42025241 3.36201929 0 0 Z "
     fill="#E7E7E7"
     transform="translate(475,504)"
     id="path12" />
  <path
     d="M0 0 C4.6595426 1.83161286 7.66552243 4.30521625 10.18359375 8.5859375 C11.97895202 15.46814421 11.51033494 21.43518018 8.296875 27.76953125 C5.75285433 30.92586635 3.05664155 32.30487364 -0.93359375 32.859375 C-8.43348941 32.80093425 -13.78497242 32.56966429 -19.44140625 27.2109375 C-21.64668893 23.47892065 -22.59519496 19.87353601 -21.64453125 15.53613281 C-20.9742328 13.54831661 -20.20727535 11.63800595 -19.37890625 9.7109375 C-19.12173828 9.05222656 -18.86457031 8.39351562 -18.59960938 7.71484375 C-14.95324809 -1.11884722 -8.83732891 -2.30539015 0 0 Z "
     fill="#F8F8F8"
     transform="translate(576.06640625,516.5390625)"
     id="path13" />
  <path
     d="M0 0 C4.44959432 1.40117793 9.20201161 3.09685005 12 7 C12.57054467 11.82875613 11.36234999 16.07225797 9.875 20.625 C9.68679688 21.27984375 9.49859375 21.9346875 9.3046875 22.609375 C8.12698926 26.24551832 7.00656361 27.99450711 4.0546875 30.46484375 C-2.07430405 33.5450147 -8.66057109 30.66072898 -14.8984375 28.81640625 C-17 28 -17 28 -19 26 C-21.13923068 18.88812054 -19.43860768 13.30579075 -16.6171875 6.6640625 C-12.41819312 -0.25312148 -7.53267117 -1.1271108 0 0 Z "
     fill="#F7F7F7"
     transform="translate(671,528)"
     id="path14" />
  <path
     d="M0 0 C0.99 0.33 1.98 0.66 3 1 C2.60477402 9.9716297 0.67460642 18.50319925 -1.35253906 27.2109375 C-6.27616311 48.17153652 -6.27616311 48.17153652 -10.06274414 69.35742188 C-10.7167955 73.70269147 -11.77647653 77.7840606 -13 82 C-13.47881912 84.4335587 -13.93677078 86.87130545 -14.375 89.3125 C-16.83555787 102.02694759 -21.9735154 113.40587035 -32 122 C-32.66 122 -33.32 122 -34 122 C-34 122.66 -34 123.32 -34 124 C-34.66 124 -35.32 124 -36 124 C-36 114.1 -36 104.2 -36 94 C-35.67 94 -35.34 94 -35 94 C-34.34 99.94 -33.68 105.88 -33 112 C-26.35579311 99.26527013 -21.95959675 87.23928618 -18.56713867 73.27319336 C-17.71556328 69.77996272 -16.8192004 66.31138316 -15.8125 62.859375 C-12.8961392 52.85648708 -10.64720522 42.82834 -8.69946289 32.59008789 C-7.6893085 27.29866274 -6.52691627 22.17140779 -5 17 C-4.22242131 13.37648328 -3.49904317 9.74515346 -2.78125 6.109375 C-2 3 -2 3 0 0 Z "
     fill="#E9E9E8"
     transform="translate(531,407)"
     id="path15" />
  <path
     d="M0 0 C5.00545426 2.45550586 6.89803391 4.91772463 9 10 C9.92073078 17.69983681 9.80760417 26.05762131 6 33 C3.28575943 36.01582286 1.43316053 36.86611402 -2.4375 38.0625 C-6.20151523 37.99646465 -7.93803991 37.40681226 -10.64453125 34.765625 C-15.43252829 28.52881042 -16.66881288 21.55955738 -16.390625 13.83984375 C-15.67515166 8.6383526 -13.6725099 4.91143989 -10.25 1 C-6.82404805 -0.52264531 -3.63419525 -0.62320497 0 0 Z "
     fill="#2D2D2D"
     transform="translate(380,131)"
     id="path16"
     style="fill:#f29400;fill-opacity:1" />
  <path
     d="M0 0 C4.30053618 2.3062216 6.58001908 5.38344103 8 10 C8.83271329 19.65731126 8.74135154 28.01153128 2.75 36 C0 38 0 38 -3.5 38.5625 C-7.58729594 37.90561315 -9.13391886 36.94569451 -12 34 C-15.79145302 28.58363854 -16.1715536 24.175274 -16.25 17.625 C-16.27578125 16.33851563 -16.3015625 15.05203125 -16.328125 13.7265625 C-15.87793152 8.61365085 -14.2662538 5.37478984 -10.8125 1.625 C-7.16270747 -0.48376902 -4.06272828 -0.92226317 0 0 Z "
     fill="#2D2D2D"
     transform="translate(307,131)"
     id="path17"
     style="fill:#f29400;fill-opacity:1" />
  <path
     d="M0 0 C0.33 0 0.66 0 1 0 C1.2015993 18.44696448 1.38476263 36.89401845 1.54658794 55.3413744 C1.6221631 63.90876361 1.70354005 72.47602104 1.79907227 81.04321289 C1.88242183 88.51925057 1.95437966 95.99530101 2.01323253 103.47157305 C2.04471402 107.42216067 2.08150815 111.37252179 2.13199425 115.32291603 C2.33443466 131.44990379 2.38172989 147.147618 -1 163 C-1.25408905 164.31668532 -1.50461863 165.63406321 -1.75134277 166.95214844 C-2.3642129 170.20477561 -3.01818432 173.44607091 -3.6875 176.6875 C-3.91244141 177.79416016 -4.13738281 178.90082031 -4.36914062 180.04101562 C-4.90908515 182.69478553 -5.45265832 185.34774788 -6 188 C-6.66 187.67 -7.32 187.34 -8 187 C-7.93361328 186.05455322 -7.86722656 185.10910645 -7.79882812 184.13500977 C-7.04258089 172.97079363 -6.70139897 161.8188182 -6.44775391 150.63354492 C-6.27060202 142.9794459 -6.06284342 135.35214753 -5.49609375 127.71484375 C-5.06443311 121.71667576 -4.86338195 115.73895849 -4.75390625 109.7265625 C-4.73721893 108.82428421 -4.72053162 107.92200592 -4.70333862 106.99238586 C-4.63736573 103.27169107 -4.57552276 99.55099136 -4.52319336 95.83007812 C-4.34636975 83.7594847 -3.68845801 71.95834842 -2 60 C-1.67 60 -1.34 60 -1 60 C-0.505 30.3 -0.505 30.3 0 0 Z "
     fill="#DFE0DF"
     transform="translate(402,249)"
     id="path18" />
  <path
     d="M0 0 C5.27117181 0.60821213 7.34096661 4.2985131 10.625 8.1875 C13.14228322 10.69759185 13.14228322 10.69759185 16.8125 10.75 C17.946875 10.62625 19.08125 10.5025 20.25 10.375 C21.013125 10.313125 21.77625 10.25125 22.5625 10.1875 C25.12902729 8.95176464 25.31955793 6.9802378 26.25 4.375 C27.5 2.5625 27.5 2.5625 29.25 1.375 C32.45890425 0.97388697 34.39776246 0.85266086 37.1875 2.5625 C38.25 4.375 38.25 4.375 38.125 6.6875 C35.79705162 13.83762717 32.29171453 18.00513396 26.25 22.375 C20.6717693 24.99335318 15.60651955 24.82192612 9.625 23.6875 C4.41954504 21.66315641 1.33143791 17.9237893 -1.75 13.375 C-2.3378125 12.50875 -2.3378125 12.50875 -2.9375 11.625 C-4.19393444 8.14564309 -3.93138958 5.06325488 -3.75 1.375 C-2.75 0.375 -2.75 0.375 0 0 Z "
     fill="#2E2E2E"
     transform="translate(324.75,178.625)"
     id="path20"
     style="fill:#f29400;fill-opacity:1" />
  <path
     d="M0 0 C9.0892731 16.23084481 3.97323052 38.21956877 -0.29882812 55.16308594 C-1.44870087 59.81542622 -2.43631358 64.50134618 -3.4375 69.1875 C-3.84840036 71.08215235 -4.25987122 72.97668104 -4.671875 74.87109375 C-5.11471935 76.91403302 -5.55741909 78.95700364 -6 81 C-6.25458984 82.17449707 -6.50917969 83.34899414 -6.77148438 84.55908203 C-7.57894276 88.28893367 -8.38357103 92.01938618 -9.1875 95.75 C-9.43749756 96.90395264 -9.68749512 98.05790527 -9.94506836 99.24682617 C-11.42780709 106.14373958 -12.78723629 113.05043552 -14 120 C-14.33 119.01 -14.66 118.02 -15 117 C-15.99 117 -16.98 117 -18 117 C-17.48725078 109.24805569 -15.95560923 101.95999877 -14.0625 94.4375 C-13.53188942 92.29052825 -13.00193 90.14339545 -12.47265625 87.99609375 C-12.09391357 86.46251221 -12.09391357 86.46251221 -11.70751953 84.89794922 C-10.17172599 78.60744912 -8.90954105 72.41360193 -8 66 C-7.62184508 64.03114344 -7.23546988 62.0638589 -6.84375 60.09765625 C-3.93333459 45.07003521 -2.39025952 30.65003609 -2.27734375 15.34790039 C-2.26445313 14.06778076 -2.2515625 12.78766113 -2.23828125 11.46875 C-2.23868408 10.33888672 -2.23908691 9.20902344 -2.23950195 8.04492188 C-1.9976427 4.97003035 -1.30499026 2.7762172 0 0 Z "
     fill="#EAEAE9"
     transform="translate(549,288)"
     id="path21" />
  <path
     d="M0 0 C0.66 0.33 1.32 0.66 2 1 C-0.79872603 17.81192767 -5.60215006 33.8510605 -11 50 C-11.28133789 50.84626953 -11.56267578 51.69253906 -11.85253906 52.56445312 C-15.95849918 64.63072966 -22.48872248 76.62127374 -34 83 C-37.28217049 84.49746085 -40.59377023 85.81340356 -44 87 C-44.99 86.01 -45.98 85.02 -47 84 C-46 82 -46 82 -43 81 C-42.154375 80.484375 -41.30875 79.96875 -40.4375 79.4375 C-38 78 -38 78 -36 78 C-36 77.34 -36 76.68 -36 76 C-34.51766563 74.78119174 -33.03276806 73.56517075 -31.52734375 72.375 C-29.49268277 70.54328475 -28.34871981 68.36025966 -27 66 C-26.34 66 -25.68 66 -25 66 C-24.74863281 65.31421875 -24.49726562 64.6284375 -24.23828125 63.921875 C-23.07765602 61.1832388 -21.71071871 58.66539052 -20.23242188 56.08813477 C-15.30122299 47.4136029 -12.45393346 38.63876747 -10 29 C-9.34 29 -8.68 29 -8 29 C-7.896875 27.7625 -7.79375 26.525 -7.6875 25.25 C-7.46210953 22.54531434 -7.21301231 21.27330944 -5.5234375 19.10546875 C-3.58621846 16.42813269 -3.36088893 14.32218367 -2.9375 11.0625 C-2.40621051 7.0601192 -1.64118338 3.69777002 0 0 Z "
     fill="#E9E9E8"
     transform="translate(633,487)"
     id="path22" />
  <path
     d="M0 0 C6.58558559 0.9039039 6.58558559 0.9039039 9.15625 1.5 C13.1923819 2.20964956 17.22345261 2.36563189 21.3125 2.5625 C22.14845703 2.60568359 22.98441406 2.64886719 23.84570312 2.69335938 C25.89696935 2.79885307 27.9484648 2.89987315 30 3 C17.96774843 15.36940748 -2.49446461 27.14611518 -20 29 C-23.07475332 28.87344765 -25.95141538 28.48390232 -29 28 C-28.34 27.34 -27.68 26.68 -27 26 C-25.7625 26.0309375 -25.7625 26.0309375 -24.5 26.0625 C-23.2625 26.0315625 -23.2625 26.0315625 -22 26 C-21.34 25.01 -20.68 24.02 -20 23 C-18.08886365 22.23678646 -16.17262405 21.48292359 -14.22851562 20.80810547 C-10.60486203 19.49409436 -7.19527398 17.78186201 -3.75 16.0625 C-3.05648438 15.72798828 -2.36296875 15.39347656 -1.6484375 15.04882812 C2.19702259 13.13714825 5.1383124 11.29684112 8 8 C5.525 7.01 5.525 7.01 3 6 C3 5.01 3 4.02 3 3 C2.01 2.67 1.02 2.34 0 2 C0 1.34 0 0.68 0 0 Z "
     fill="#EAEAEA"
     transform="translate(382,590)"
     id="path23" />
  <path
     d="M0 0 C0.33 0.66 0.66 1.32 1 2 C1.66 2.33 2.32 2.66 3 3 C2.01 3.495 2.01 3.495 1 4 C1.20625 5.2375 1.4125 6.475 1.625 7.75 C2.21511091 11.29066544 1.64037182 12.8605618 0 16 C-1.19156369 24.0933482 1.2147645 32.42030119 6 39 C6.99 39.66 7.98 40.32 9 41 C7.35 41.66 5.7 42.32 4 43 C4.66 43 5.32 43 6 43 C7.33333333 44.33333333 8.66666667 45.66666667 10 47 C15.48817604 50.70451883 20.23493566 51.18686775 26.75 51.5625 C27.79607422 51.62727539 27.79607422 51.62727539 28.86328125 51.69335938 C30.57531922 51.79889596 32.28763561 51.8998991 34 52 C33.34 52.66 32.68 53.32 32 54 C32.66 54.66 33.32 55.32 34 56 C12.71704626 56.77943676 12.71704626 56.77943676 2.75 49.6875 C-2.77230887 44.29069815 -6.48807592 38.68003911 -8 31 C-7.90091444 24.95578095 -6.03718209 19.80086838 -4.0546875 14.12109375 C-2.48382295 9.4724983 -1.23357461 4.7473932 0 0 Z "
     fill="#EBEBEA"
     transform="translate(643,525)"
     id="path24" />
  <path
     d="M0 0 C0.99 0.66 1.98 1.32 3 2 C2.67 3.98 2.34 5.96 2 8 C1.34 8 0.68 8 0 8 C0.99 9.485 0.99 9.485 2 11 C3.19846809 14.59540428 2.42612457 15.43013106 0.89453125 18.703125 C-0.64128188 22.64661024 -1.3851586 26.78137595 -2.25390625 30.9140625 C-3 34 -3 34 -4.03125 36.57421875 C-5.05385429 39.13485287 -5.51553708 41.46684382 -5.9375 44.1875 C-6.85946676 49.61604026 -8.29796164 54.76906877 -10 60 C-10.66 60 -11.32 60 -12 60 C-12.57381373 63.8527493 -13.06942421 67.68455866 -13.4375 71.5625 C-13.93296607 76.12233617 -15.21689131 80.06833191 -16.9375 84.3125 C-18.01252551 86.9041401 -18.01252551 86.9041401 -18.65234375 89.27734375 C-19.01005859 90.50130859 -19.01005859 90.50130859 -19.375 91.75 C-19.69597656 92.91789063 -19.69597656 92.91789063 -20.0234375 94.109375 C-21 96 -21 96 -23.1015625 96.765625 C-24.04128906 96.88164063 -24.04128906 96.88164063 -25 97 C-24.36658021 92.84551136 -23.48820911 88.86361315 -22.375 84.8125 C-20.70429527 78.67706297 -19.1017586 72.52610841 -17.52172852 66.36669922 C-14.8838349 56.09521691 -12.15763808 45.86215267 -9.21069336 35.67504883 C-7.32328605 29.15001213 -5.48668132 22.61243236 -3.6875 16.0625 C-3.43282959 15.14428467 -3.17815918 14.22606934 -2.91577148 13.2800293 C-1.70950679 8.86966253 -0.63538514 4.53739742 0 0 Z "
     fill="#DFDFDE"
     transform="translate(669,428)"
     id="path25" />
  <path
     d="M0 0 C0.33 0 0.66 0 1 0 C1 2.31 1 4.62 1 7 C1.86625 6.649375 2.7325 6.29875 3.625 5.9375 C8.61697989 4.48362398 13.51583305 5.24849574 18.625 5.703125 C23.78632685 6.1571306 28.6049573 6.20925641 33.75 5.4375 C36.74790974 5.03393523 38.19162994 5.19760855 41 6 C42.485 5.505 42.485 5.505 44 5 C44 5.99 44 6.98 44 8 C-71.17 8 -186.34 8 -305 8 C-305 7.67 -305 7.34 -305 7 C-204.35 7 -103.7 7 0 7 C0 4.69 0 2.38 0 0 Z "
     fill="#FBF0E2"
     transform="translate(657,976)"
     id="path26" />
  <path
     d="M0 0 C-0.81601606 4.23973563 -2.41605308 5.55639982 -6 8 C-10.61662446 10.40681164 -14.97598447 10.34462642 -20.0625 10.3125 C-21.32090698 10.31056641 -21.32090698 10.31056641 -22.60473633 10.30859375 C-29.37130912 10.20468247 -35.56539176 9.15771294 -42 7 C-41.67 6.34 -41.34 5.68 -41 5 C-28.04796543 1.36178804 -13.4173897 -0.48790508 0 0 Z "
     fill="#ECECEC"
     transform="translate(372,349)"
     id="path28" />
  <path
     d="M0 0 C0.33 0 0.66 0 1 0 C1.66 5.94 2.32 11.88 3 18 C5.17761413 13.48698593 5.17761413 13.48698593 7.3371582 8.96533203 C8.954686 5.67188533 9.88933065 4.07377957 13 2 C15.79790999 11.96123378 15.79790999 11.96123378 13.97265625 16.625 C12.44902109 18.92014508 10.84669406 20.95738129 9 23 C8.52175781 23.54914062 8.04351562 24.09828125 7.55078125 24.6640625 C6.25 26.0625 6.25 26.0625 4 28 C3.34 28 2.68 28 2 28 C2 28.66 2 29.32 2 30 C1.34 30 0.68 30 0 30 C0 20.1 0 10.2 0 0 Z "
     fill="#EDEDEE"
     transform="translate(495,501)"
     id="path29" />
  <path
     d="M0 0 C0.66 0.66 1.32 1.32 2 2 C-0.27467754 5.04903585 -2.61208791 8.03879949 -5 11 C-5.5053125 11.63035156 -6.010625 12.26070312 -6.53125 12.91015625 C-11.75746035 18.76297855 -18.84676454 22.04344916 -26 25 C-26.99 25 -27.98 25 -29 25 C-29 24.34 -29 23.68 -29 23 C-28.34 23 -27.68 23 -27 23 C-27 22.34 -27 21.68 -27 21 C-23.99382731 17.99382731 -21.17618402 18.40414684 -17 18 C-17 17.34 -17 16.68 -17 16 C-16.01 16 -15.02 16 -14 16 C-13.979375 15.4225 -13.95875 14.845 -13.9375 14.25 C-12.65239796 11.1657551 -10.52297843 10.49598476 -7.65625 9.015625 C-5.53193141 7.71297681 -4.75578932 6.35134456 -4 4 C-3.34 4 -2.68 4 -2 4 C-1.34 2.68 -0.68 1.36 0 0 Z "
     fill="#E3E4E5"
     transform="translate(707,555)"
     id="path34" />
  <path
     d="M0 0 C2.38598167 3.57897251 2.78579503 5.71590055 3 10 C1.9375 13.8125 1.9375 13.8125 0 17 C-3.63804486 18.78031982 -5.92728328 19 -10 19 C-10.99 21.475 -10.99 21.475 -12 24 C-12.99 24 -13.98 24 -15 24 C-15.33 22.68 -15.66 21.36 -16 20 C-14.205625 19.319375 -14.205625 19.319375 -12.375 18.625 C-5.80517475 15.36338463 -3.12567084 8.96767767 -0.625 2.375 C-0.41875 1.59125 -0.2125 0.8075 0 0 Z M1 6 C2 8 2 8 2 8 Z "
     fill="#EBEBEA"
     transform="translate(691,548)"
     id="path35" />
  <path
     d="M0 0 C0.33 0.66 0.66 1.32 1 2 C1.66 2.33 2.32 2.66 3 3 C2.01 3.495 2.01 3.495 1 4 C1.20625 5.2375 1.4125 6.475 1.625 7.75 C2.05297909 10.31787456 2.23473134 11.55009826 1.015625 13.88671875 C-0.71876364 17.49558127 0.078263 21.30629526 0.3203125 25.22265625 C0 28 0 28 -2.0078125 29.87109375 C-2.99394531 30.42990234 -2.99394531 30.42990234 -4 31 C-3.67 28.69 -3.34 26.38 -3 24 C-3.99 24 -4.98 24 -6 24 C-6.33 26.31 -6.66 28.62 -7 31 C-7.33 31 -7.66 31 -8 31 C-7.53679565 24.97834347 -6.04204531 19.81480134 -4.0546875 14.12109375 C-2.48382295 9.4724983 -1.23357461 4.7473932 0 0 Z "
     fill="#DADBD9"
     transform="translate(643,525)"
     id="path36" />
  <path
     d="M0 0 C0.66 0.33 1.32 0.66 2 1 C2 2.98 2 4.96 2 7 C2.33 7 2.66 7 3 7 C2.27643663 16.11689851 0.65707093 25.01638277 -1 34 C-1.66 33.67 -2.32 33.34 -3 33 C-2.9278125 31.97261719 -2.855625 30.94523437 -2.78125 29.88671875 C-2.68659474 28.48704009 -2.59291232 27.08729544 -2.5 25.6875 C-2.45157959 24.95998535 -2.40315918 24.2324707 -2.35327148 23.48291016 C-2.08954966 19.26615165 -1.97479922 15.10217763 -2.0625 10.875 C-2.11679833 6.87502305 -1.60986165 3.72280506 0 0 Z "
     fill="#EBEBEB"
     transform="translate(397,403)"
     id="path37" />
  <path
     d="M0 0 C4.28338581 7.64890323 4.2571558 14.87278785 4.125 23.4375 C4.11597656 24.55060547 4.10695313 25.66371094 4.09765625 26.81054688 C4.0742224 29.54059023 4.041414 32.2701801 4 35 C3.67 35 3.34 35 3 35 C3 29.72 3 24.44 3 19 C1.68 19.33 0.36 19.66 -1 20 C-2.36993899 7.16472546 -2.36993899 7.16472546 -1 1 C-0.67 0.67 -0.34 0.34 0 0 Z "
     fill="#E2E2E2"
     transform="translate(549,288)"
     id="path38" />
  <path
     d="M0 0 C1 3 1 3 0 6 C0.66 6 1.32 6 2 6 C2 6.66 2 7.32 2 8 C2.66 8.33 3.32 8.66 4 9 C2.71580959 10.67243402 1.42242815 12.33781447 0.125 14 C-0.59429688 14.928125 -1.31359375 15.85625 -2.0546875 16.8125 C-2.69664062 17.534375 -3.33859375 18.25625 -4 19 C-4.66 19 -5.32 19 -6 19 C-7.20577428 14.05632546 -6.6290678 10.79137588 -5 6 C-4.67 6.66 -4.34 7.32 -4 8 C-2.68 5.36 -1.36 2.72 0 0 Z "
     fill="#F1F1F0"
     transform="translate(650,516)"
     id="path41" />
  <path
     d="M0 0 C-0.99 1.485 -0.99 1.485 -2 3 C-2.39387788 5.32387947 -2.73486085 7.65793749 -3 10 C-3.33 9.01 -3.66 8.02 -4 7 C-5.98 7.66 -7.96 8.32 -10 9 C-10 9.66 -10 10.32 -10 11 C-10.66 11 -11.32 11 -12 11 C-12 12.98 -12 14.96 -12 17 C-12.33 17 -12.66 17 -13 17 C-13.78291815 7.06563859 -13.78291815 7.06563859 -10.75 2.9375 C-4.36697248 -1.55963303 -4.36697248 -1.55963303 0 0 Z "
     fill="#373737"
     transform="translate(397,492)"
     id="path42"
     style="fill:#f29400;fill-opacity:1" />
  <path
     d="M0 0 C0.99 0.33 1.98 0.66 3 1 C2.60167969 1.42410156 2.20335937 1.84820312 1.79296875 2.28515625 C-1.85862461 6.32767445 -4.12157254 9.88650302 -6 15 C-7.98 15 -9.96 15 -12 15 C-12.33 15.66 -12.66 16.32 -13 17 C-13.66 17 -14.32 17 -15 17 C-13.1946 10.58079998 -8.07510565 5.27157607 -2.75 1.4375 C-1.38875 0.7259375 -1.38875 0.7259375 0 0 Z "
     fill="#E7E7E6"
     transform="translate(695,375)"
     id="path43" />
  <path
     d="M0 0 C6.27 0.33 12.54 0.66 19 1 C18.01 1.66 17.02 2.32 16 3 C16 3.99 16 4.98 16 6 C15.278125 5.79375 14.55625 5.5875 13.8125 5.375 C10.51884293 4.93584572 8.98643081 5.66396516 6 7 C2.38970831 7 -0.55806676 6.03907418 -4 5 C-4 4.67 -4 4.34 -4 4 C-2.35 4 -0.7 4 1 4 C0.67 2.68 0.34 1.36 0 0 Z "
     fill="#E0DFDE"
     transform="translate(655,599)"
     id="path44" />
  <path
     d="M0 0 C5.49310925 1.12698301 10.66059429 1.15247714 16.25 0.9375 C19 1.0625 19 1.0625 22 3.0625 C12.15060936 6.25133666 -0.51240696 4.50508236 -10 1.0625 C-10 0.7325 -10 0.4025 -10 0.0625 C-6.28051129 -0.88729801 -3.72292042 -0.86830309 0 0 Z "
     fill="#E1E1E0"
     transform="translate(567,571.9375)"
     id="path46" />
  <path
     d="M0 0 C4.62 0 9.24 0 14 0 C10.29909479 3.9252025 6.45040344 6.94580156 2 10 C0.68 9.34 -0.64 8.68 -2 8 C-1.34 8 -0.68 8 0 8 C0 7.34 0 6.68 0 6 C0.66 5.67 1.32 5.34 2 5 C2 4.34 2 3.68 2 3 C1.34 2.67 0.68 2.34 0 2 C0 1.34 0 0.68 0 0 Z "
     fill="#E3E3E2"
     transform="translate(398,593)"
     id="path47" />
  <path
     d="M0 0 C0.33 0 0.66 0 1 0 C1 6.27 1 12.54 1 19 C-1.475 18.01 -1.475 18.01 -4 17 C-4 17.66 -4 18.32 -4 19 C-4.66 19 -5.32 19 -6 19 C-4.12275039 12.62267685 -2.14328358 6.29304541 0 0 Z "
     fill="#E1E2E4"
     transform="translate(767,461)"
     id="path48" />
  <path
     d="M0 0 C0.66 0 1.32 0 2 0 C0.50829734 4.9723422 -1.60457417 9.41845739 -4 14 C-4.66 13.34 -5.32 12.68 -6 12 C-6.99 12.33 -7.98 12.66 -9 13 C-8.71788123 11.3733152 -8.42397625 9.74867104 -8.125 8.125 C-7.96257813 7.22007812 -7.80015625 6.31515625 -7.6328125 5.3828125 C-7 3 -7 3 -5 1 C-5 1.99 -5 2.98 -5 4 C-4.34 4.33 -3.68 4.66 -3 5 C-3 4.34 -3 3.68 -3 3 C-2.34 3 -1.68 3 -1 3 C-0.67 2.01 -0.34 1.02 0 0 Z "
     fill="#E8E7E7"
     transform="translate(731,758)"
     id="path50" />
  <path
     d="M0 0 C1.32 0.33 2.64 0.66 4 1 C3.71617054 2.75128818 3.42260471 4.50100003 3.125 6.25 C2.96257813 7.22453125 2.80015625 8.1990625 2.6328125 9.203125 C2.05144152 11.77264117 1.29159735 13.72071056 0 16 C-0.33 15.67 -0.66 15.34 -1 15 C-1.66 15 -2.32 15 -3 15 C-2.22095672 4.44191344 -2.22095672 4.44191344 0 0 Z "
     fill="#EBEBEB"
     transform="translate(660,466)"
     id="path52" />
  <path
     d="M0 0 C0 1.32 0 2.64 0 4 C-0.99 4.495 -0.99 4.495 -2 5 C-2 5.99 -2 6.98 -2 8 C-5.91211733 6.84414715 -8.8745041 5.64465038 -12 3 C-4.71428571 -1.71428571 -4.71428571 -1.71428571 0 0 Z "
     fill="#E1E1E1"
     transform="translate(441,598)"
     id="path54" />
  <path
     d="M0 0 C3.125 0.25 3.125 0.25 5 1.75 C5.37125 2.245 5.7425 2.74 6.125 3.25 C5.155625 3.600625 4.18625 3.95125 3.1875 4.3125 C-0.26934602 6.00003667 -0.26934602 6.00003667 -0.75 9.9375 C-0.79125 11.030625 -0.8325 12.12375 -0.875 13.25 C-3.51494297 10.61005703 -4.09895215 8.68966299 -4.125 5.0625 C-3.81478495 0.33172043 -3.81478495 0.33172043 0 0 Z "
     fill="#383839"
     transform="translate(324.875,178.75)"
     id="path58"
     style="fill:#f29400;fill-opacity:1" />
  <path
     d="M0 0 C2.15131376 4.30262753 2.15644034 5.67587137 1.75 10.3125 C1.64300781 11.53839844 1.53601563 12.76429688 1.42578125 14.02734375 C0.74589506 20.37086902 -0.08908196 26.68548076 -1 33 C-1.33 33 -1.66 33 -2 33 C-2.72569956 28.24263621 -3.1147762 24.70683283 -2 20 C-1.95919217 18.00041636 -1.95745644 15.99954746 -2 14 C-2 12.68 -2 11.36 -2 10 C-1.34 10 -0.68 10 0 10 C0 6.7 0 3.4 0 0 Z "
     fill="#E5E5E5"
     transform="translate(758,646)"
     id="path60" />
  <path
     d="M0 0 C2.1640625 0.99609375 2.1640625 0.99609375 4.625 2.4375 C5.85089844 3.14712891 5.85089844 3.14712891 7.1015625 3.87109375 C7.72804688 4.24363281 8.35453125 4.61617187 9 5 C9 5.99 9 6.98 9 8 C7.35 8.66 5.7 9.32 4 10 C4 9.34 4 8.68 4 8 C2.68 7.34 1.36 6.68 0 6 C0 5.34 0 4.68 0 4 C-0.66 4 -1.32 4 -2 4 C-2 3.01 -2 2.02 -2 1 C-1.34 0.67 -0.68 0.34 0 0 Z "
     fill="#E5E5E4"
     transform="translate(534,582)"
     id="path61" />
  <path
     d="M0 0 C0.33 0 0.66 0 1 0 C1.33479485 3.62486659 1.66758816 7.24991417 2 10.875 C2.14308594 12.42380859 2.14308594 12.42380859 2.2890625 14.00390625 C2.37929688 14.99003906 2.46953125 15.97617187 2.5625 16.9921875 C2.64628906 17.90339355 2.73007812 18.81459961 2.81640625 19.75341797 C3 22 3 22 3 24 C4.32 24.33 5.64 24.66 7 25 C5.625 26.5 5.625 26.5 4 28 C3.34 28 2.68 28 2 28 C2 28.66 2 29.32 2 30 C1.34 30 0.68 30 0 30 C0 20.1 0 10.2 0 0 Z "
     fill="#ABACAB"
     transform="translate(495,501)"
     id="path63" />
  <path
     d="M0 0 C0.33 0 0.66 0 1 0 C0.67 2.64 0.34 5.28 0 8 C0.66 8 1.32 8 2 8 C1.34 9.32 0.68 10.64 0 12 C-0.66 10.68 -1.32 9.36 -2 8 C-2.86625 9.6396875 -2.86625 9.6396875 -3.75 11.3125 C-5.44144447 14.29669132 -7.01791458 16.18944814 -10 18 C-10.66 17.34 -11.32 16.68 -12 16 C-11.46890625 15.43152344 -10.9378125 14.86304688 -10.390625 14.27734375 C-6.23975177 9.74016662 -2.7982554 5.47991683 0 0 Z "
     fill="#DDDDDD"
     transform="translate(726,563)"
     id="path65" />
  <path
     d="M0 0 C0.66 0.33 1.32 0.66 2 1 C1.38605929 4.27300996 0.75695364 7.54292425 0.125 10.8125 C-0.04902344 11.74126953 -0.22304688 12.67003906 -0.40234375 13.62695312 C-0.57636719 14.51962891 -0.75039063 15.41230469 -0.9296875 16.33203125 C-1.08679199 17.15421143 -1.24389648 17.9763916 -1.40576172 18.82348633 C-2 21 -2 21 -4 24 C-4.02688151 22.35425434 -4.04634123 20.70838587 -4.0625 19.0625 C-4.07410156 18.14597656 -4.08570313 17.22945313 -4.09765625 16.28515625 C-4 14 -4 14 -3 13 C-2.76975458 11.02646786 -2.54051046 9.05280344 -2.3203125 7.078125 C-1.92688036 4.52561405 -1.09336414 2.33251015 0 0 Z "
     fill="#D5D5D5"
     transform="translate(633,487)"
     id="path67" />
  <path
     d="M0 0 C2.72426311 2.35277269 3.8141763 4.62496331 5 8 C4.21625 8.144375 3.4325 8.28875 2.625 8.4375 C0.03578982 8.87798925 0.03578982 8.87798925 -2 10 C-2 9.01 -2 8.02 -2 7 C-2.99 6.67 -3.98 6.34 -5 6 C-3.35 4.02 -1.7 2.04 0 0 Z "
     fill="#DFDFE0"
     transform="translate(622,573)"
     id="path68" />
  <path
     d="M0 0 C0.66 0.66 1.32 1.32 2 2 C-1.63 5.96 -5.26 9.92 -9 14 C-9.66 13.67 -10.32 13.34 -11 13 C-10.34 11.68 -9.68 10.36 -9 9 C-8.34 9 -7.68 9 -7 9 C-6.95875 8.2575 -6.9175 7.515 -6.875 6.75 C-5.65142617 2.90448224 -3.40653418 1.95694517 0 0 Z "
     fill="#DDDEDC"
     transform="translate(712,790)"
     id="path70" />
  <path
     d="M0 0 C1.2065625 0.0309375 1.2065625 0.0309375 2.4375 0.0625 C2.4375 4.16458017 2.29993878 4.76328938 0 7.8125 C-0.67869141 8.73289062 -0.67869141 8.73289062 -1.37109375 9.671875 C-1.76425781 10.13078125 -2.15742188 10.5896875 -2.5625 11.0625 C-2.8925 11.0625 -3.2225 11.0625 -3.5625 11.0625 C-3.58938151 9.41675434 -3.60884123 7.77088587 -3.625 6.125 C-3.63660156 5.20847656 -3.64820313 4.29195312 -3.66015625 3.34765625 C-3.52086326 0.08820018 -3.27895972 0.07997463 0 0 Z "
     fill="#ECECEB"
     transform="translate(291.5625,528.9375)"
     id="path74" />
  <path
     d="M0 0 C0.33 0.66 0.66 1.32 1 2 C1.66 2 2.32 2 3 2 C2.74438677 4.3431213 2.40729228 6.67843403 2 9 C1.01 9.495 1.01 9.495 0 10 C-0.72159424 11.64363134 -1.39351421 13.31050386 -2 15 C-2.99 15 -3.98 15 -5 15 C-3.60961435 9.86626838 -1.91539047 4.96260257 0 0 Z "
     fill="#DDDDDE"
     transform="translate(758,485)"
     id="path75" />
  <path
     d="M0 0 C0.66 0.99 1.32 1.98 2 3 C1.3125 6.125 1.3125 6.125 0 9 C-3 10 -3 10 -5.1875 9.0625 C-5.785625 8.711875 -6.38375 8.36125 -7 8 C-5.50902342 4.2047869 -3.24299151 2.38957269 0 0 Z "
     fill="#E5E4E3"
     transform="translate(616,579)"
     id="path76" />
  <path
     d="M0 0 C0 0.99 0 1.98 0 3 C-4.07581893 6.9559419 -8.19053654 8.87784941 -13.875 9.125 C-14.57625 9.08375 -15.2775 9.0425 -16 9 C-13.34697146 6.34697146 -10.20773563 4.99847122 -6.875 3.375 C-6.21628906 3.05015625 -5.55757812 2.7253125 -4.87890625 2.390625 C-3.25438086 1.59013423 -1.62742022 0.79458899 0 0 Z "
     fill="#DBDBDB"
     transform="translate(702,589)"
     id="path83" />
  <path
     d="M0 0 C0.66 0 1.32 0 2 0 C2.67260351 1.76858691 3.33788395 3.53996016 4 5.3125 C4.37125 6.29863281 4.7425 7.28476562 5.125 8.30078125 C6 11 6 11 6 14 C3 13 3 13 1.3125 9.8125 C-0.01535157 6.4652075 -0.26451861 3.61508773 0 0 Z "
     fill="#3C3C3C"
     transform="translate(448,493)"
     id="path85"
     style="fill:#f29400;fill-opacity:1" />
  <path
     d="M0 0 C2.31 0 4.62 0 7 0 C7.33 1.32 7.66 2.64 8 4 C7.278125 3.79375 6.55625 3.5875 5.8125 3.375 C2.51884293 2.93584572 0.98643081 3.66396516 -2 5 C-2.99 5 -3.98 5 -5 5 C-3.625 3.5 -3.625 3.5 -2 2 C-1.34 2 -0.68 2 0 2 C0 1.34 0 0.68 0 0 Z "
     fill="#ECEBEB"
     transform="translate(663,601)"
     id="path87" />
  <path
     d="M0 0 C2.35981813 0.93578995 4.69631264 1.93347808 7 3 C5.35 4.32 3.7 5.64 2 7 C2 6.34 2 5.68 2 5 C-0.475 6.485 -0.475 6.485 -3 8 C-3.33 7.01 -3.66 6.02 -4 5 C-2.68 4.67 -1.36 4.34 0 4 C0 3.34 0 2.68 0 2 C-0.66 1.67 -1.32 1.34 -2 1 C-1.34 0.67 -0.68 0.34 0 0 Z "
     fill="#DDDDDD"
     transform="translate(638,592)"
     id="path88" />
  <path
     d="M0 0 C0.66 0 1.32 0 2 0 C1.34 8.25 0.68 16.5 0 25 C-0.33 25 -0.66 25 -1 25 C-1.19466332 23.20909747 -1.38051213 21.41723495 -1.5625 19.625 C-1.66691406 18.62726562 -1.77132812 17.62953125 -1.87890625 16.6015625 C-2 14 -2 14 -1 12 C-0.77141886 9.9625237 -0.58975722 7.91959697 -0.4375 5.875 C-0.35371094 4.77929688 -0.26992188 3.68359375 -0.18359375 2.5546875 C-0.12300781 1.71164062 -0.06242188 0.86859375 0 0 Z "
     fill="#C9C9CA"
     transform="translate(762,616)"
     id="path92" />
  <path
     d="M0 0 C6.93 0 13.86 0 21 0 C21 0.33 21 0.66 21 1 C19.98679687 1.09087891 19.98679687 1.09087891 18.953125 1.18359375 C18.06109375 1.26738281 17.1690625 1.35117187 16.25 1.4375 C15.36828125 1.51871094 14.4865625 1.59992187 13.578125 1.68359375 C11.05944484 1.9316934 11.05944484 1.9316934 8.90625 2.5625 C5.85929536 3.26180107 3.04180466 2.52646619 0 2 C0 1.34 0 0.68 0 0 Z "
     fill="#CDCDCD"
     transform="translate(624,847)"
     id="path94" />
  <path
     d="M0 0 C0.99 0 1.98 0 3 0 C3 0.66 3 1.32 3 2 C4.65 2.33 6.3 2.66 8 3 C4.80009492 5.74277578 1.99500618 7.6302836 -2 9 C-2 6 -2 6 -0.5 4.3125 C0.2425 3.6628125 0.2425 3.6628125 1 3 C0.34 2.34 -0.32 1.68 -1 1 C-0.67 0.67 -0.34 0.34 0 0 Z "
     fill="#E6E6E5"
     transform="translate(682,811)"
     id="path95" />
  <path
     d="M0 0 C0.66 0.33 1.32 0.66 2 1 C2 1.99 2 2.98 2 4 C1.01 4 0.02 4 -1 4 C-1 4.66 -1 5.32 -1 6 C-5.56830973 6.31147566 -7.50007882 5.89884776 -11 3 C-10.28972656 2.86722656 -9.57945312 2.73445312 -8.84765625 2.59765625 C-7.92855469 2.42105469 -7.00945313 2.24445312 -6.0625 2.0625 C-4.68771484 1.80146484 -4.68771484 1.80146484 -3.28515625 1.53515625 C-1.04710156 1.22285012 -1.04710156 1.22285012 0 0 Z "
     fill="#EAEAEA"
     transform="translate(613,829)"
     id="path98" />
  <path
     d="M0 0 C2 2 2 2 2.01171875 4.20703125 C1.90472656 5.06683594 1.79773438 5.92664063 1.6875 6.8125 C1.57921875 7.70324219 1.4709375 8.59398437 1.359375 9.51171875 C0.99544598 12.03153161 0.57868362 14.51992734 0 17 C-2.12046792 13.46588679 -2.53199289 10.05606165 -3 6 C-2.01 5.67 -1.02 5.34 0 5 C0 3.35 0 1.7 0 0 Z "
     fill="#DEDEDE"
     transform="translate(545,344)"
     id="path99" />
  <path
     d="M0 0 C0.99 0.33 1.98 0.66 3 1 C3 2.98 3 4.96 3 7 C2.34 6.34 1.68 5.68 1 5 C0.01 7.31 -0.98 9.62 -2 12 C-3.47118907 8.17490842 -2.45442741 5.71687005 -1 2 C-0.67 1.34 -0.34 0.68 0 0 Z "
     fill="#E8E9E8"
     transform="translate(531,407)"
     id="path104" />
  <path
     d="M0 0 C0.33 0 0.66 0 1 0 C1.38133299 1.9914056 1.71325582 3.99279077 2 6 C1.67 6.33 1.34 6.66 1 7 C0.95919217 8.99958364 0.95745644 11.00045254 1 13 C0.34 13 -0.32 13 -1 13 C-2.0070238 7.96488101 -1.97387813 4.76052962 0 0 Z "
     fill="#DDDDDD"
     transform="translate(556,528)"
     id="path113" />
  <path
     d="M0 0 C1.07165569 3.21496708 0.94376088 4.39796074 0.25 7.625 C0.09015625 8.42164063 -0.0696875 9.21828125 -0.234375 10.0390625 C-0.48703125 10.68617188 -0.7396875 11.33328125 -1 12 C-1.99 12.33 -2.98 12.66 -4 13 C-3.34 9.37 -2.68 5.74 -2 2 C-1.34 2 -0.68 2 0 2 C0 1.34 0 0.68 0 0 Z "
     fill="#E8E8E9"
     transform="translate(392,449)"
     id="path114" />
  <path
     d="M0 0 C0.99 0.33 1.98 0.66 3 1 C3 1.66 3 2.32 3 3 C3.66 3.33 4.32 3.66 5 4 C4.67 5.32 4.34 6.64 4 8 C2.02 6.35 0.04 4.7 -2 3 C-1.34 2.67 -0.68 2.34 0 2 C0 1.34 0 0.68 0 0 Z "
     fill="#F2F2F0"
     transform="translate(405,518)"
     id="path120" />
  <path
     d="M0 0 C0.99 0 1.98 0 3 0 C3 1.98 3 3.96 3 6 C1.824375 6.4640625 1.824375 6.4640625 0.625 6.9375 C-1.92330128 7.92875038 -1.92330128 7.92875038 -4 9 C-2.80100302 5.9168649 -1.52299523 2.93720508 0 0 Z "
     fill="#3F3E3E"
     transform="translate(550,518)"
     id="path121"
     style="fill:#f29400;fill-opacity:1" />
  <path
     d="M0 0 C0.99 0.33 1.98 0.66 3 1 C4.1875 3.5625 4.1875 3.5625 5 6 C3.35 6 1.7 6 0 6 C-0.33 6.66 -0.66 7.32 -1 8 C-2 6 -2 6 -1.0625 2.875 C-0.5365625 1.451875 -0.5365625 1.451875 0 0 Z "
     fill="#E3E3E3"
     transform="translate(748,512)"
     id="path122" />
  <path
     d="M0 0 C0.33 0 0.66 0 1 0 C0.67 3.96 0.34 7.92 0 12 C-0.99 12 -1.98 12 -3 12 C-2.67 8.7 -2.34 5.4 -2 2 C-1.34 2 -0.68 2 0 2 C0 1.34 0 0.68 0 0 Z "
     fill="#DEE0E1"
     transform="translate(528,431)"
     id="path123" />
  <path
     d="M0 0 C2 3 2 3 1.8125 5.4375 C0.95218569 8.15079897 -0.16522465 9.84613329 -2 12 C-3.12377697 8.69564916 -2.89554742 6.9493138 -1.5625 3.75 C-1.27503906 3.04359375 -0.98757813 2.3371875 -0.69140625 1.609375 C-0.46324219 1.07828125 -0.23507812 0.5471875 0 0 Z "
     fill="#DCDCDC"
     transform="translate(691,548)"
     id="path128" />
  <path
     d="M0 0 C1.89213369 2.38573379 3.02391783 4.07175348 4 7 C2.02 7.66 0.04 8.32 -2 9 C-1.34 6.03 -0.68 3.06 0 0 Z "
     fill="#DDDDDD"
     transform="translate(675,409)"
     id="path129" />
  <path
     d="M0 0 C5.43806647 -0.36253776 5.43806647 -0.36253776 7.9375 1.25 C9 3 9 3 8.6875 5.1875 C8.3471875 6.0846875 8.3471875 6.0846875 8 7 C7.34 7 6.68 7 6 7 C6 5.68 6 4.36 6 3 C4.02 2.34 2.04 1.68 0 1 C0 0.67 0 0.34 0 0 Z "
     fill="#3B3B3A"
     transform="translate(354,180)"
     id="path131"
     style="fill:#f29400;fill-opacity:1" />
  <path
     d="M0 0 C0.33 0.66 0.66 1.32 1 2 C2.66500443 2.34153937 4.33178677 2.67449498 6 3 C6.66 3.66 7.32 4.32 8 5 C6.375 5.6875 6.375 5.6875 4 6 C0.75 4.5625 0.75 4.5625 -2 3 C-1.34 2.67 -0.68 2.34 0 2 C0 1.34 0 0.68 0 0 Z "
     fill="#DBDBDA"
     transform="translate(651,574)"
     id="path134" />
  <path
     d="M0 0 C0.66 0 1.32 0 2 0 C2 1.98 2 3.96 2 6 C1.01 6 0.02 6 -1 6 C-1.33 8.31 -1.66 10.62 -2 13 C-2.33 13 -2.66 13 -3 13 C-2.52060632 8.28596212 -2.03165952 4.33420699 0 0 Z "
     fill="#C6C6C6"
     transform="translate(638,543)"
     id="path136" />
  <path
     d="M0 0 C0.99 0.99 1.98 1.98 3 3 C2 6 2 6 -0.0625 7.1875 C-0.701875 7.455625 -1.34125 7.72375 -2 8 C-2.6875 6.25 -2.6875 6.25 -3 4 C-1.5625 1.75 -1.5625 1.75 0 0 Z "
     fill="#383938"
     transform="translate(646,534)"
     id="path137"
     style="fill:#f29400;fill-opacity:1" />
  <path
     d="M0 0 C0.99 0.33 1.98 0.66 3 1 C2.50168276 4.68754757 1.89932357 6.60490662 -1 9 C-2.25541557 5.23375329 -1.37061958 3.62811066 0 0 Z "
     fill="#E3E3E2"
     transform="translate(718,777)"
     id="path140" />
  <path
     d="M0 0 C0.99 0.33 1.98 0.66 3 1 C0.25 7.75 0.25 7.75 -2 10 C-3 7 -3 7 -1.5625 3.875 C-1.046875 2.92625 -0.53125 1.9775 0 1 C0 0.67 0 0.34 0 0 Z "
     fill="#E3E5E4"
     transform="translate(711,545)"
     id="path142" />
  <path
     d="M0 0 C0.66 0.99 1.32 1.98 2 3 C0.625 6.6875 0.625 6.6875 -1 10 C-1.99 9.67 -2.98 9.34 -4 9 C-2.68 6.03 -1.36 3.06 0 0 Z "
     fill="#EDEDED"
     transform="translate(717,532)"
     id="path143" />
  <path
     d="M0 0 C-0.33 1.65 -0.66 3.3 -1 5 C-1.99 4.67 -2.98 4.34 -4 4 C-7.18288354 5.87178116 -7.18288354 5.87178116 -10 8 C-10.66 7.67 -11.32 7.34 -12 7 C-10.3790787 5.82767315 -8.75313167 4.6622923 -7.125 3.5 C-6.22007812 2.8503125 -5.31515625 2.200625 -4.3828125 1.53125 C-2 0 -2 0 0 0 Z "
     fill="#E7E7E7"
     transform="translate(358,497)"
     id="path144" />
  <path
     d="M0 0 C0.66 0.33 1.32 0.66 2 1 C1.67 3.31 1.34 5.62 1 8 C0.34 7.34 -0.32 6.68 -1 6 C-1.99 6.495 -1.99 6.495 -3 7 C-3.1875 4.625 -3.1875 4.625 -3 2 C-2.01 1.34 -1.02 0.68 0 0 Z "
     fill="#EDEDED"
     transform="translate(654,496)"
     id="path145" />
  <path
     d="M0 0 C0.99 0.99 1.98 1.98 3 3 C1.68 3 0.36 3 -1 3 C0.32 3.99 1.64 4.98 3 6 C-2.75 6.125 -2.75 6.125 -5 5 C-5 4.34 -5 3.68 -5 3 C-4.34 3 -3.68 3 -3 3 C-3 2.34 -3 1.68 -3 1 C-2.01 0.67 -1.02 0.34 0 0 Z "
     fill="#DBDBDB"
     transform="translate(575,828)"
     id="path148" />
  <path
     d="M0 0 C0.99 0.66 1.98 1.32 3 2 C2.38722388 4.96175123 1.74627478 6.38058783 0 9 C-1.125 6.75 -1.125 6.75 -2 4 C-1.125 1.6875 -1.125 1.6875 0 0 Z "
     fill="#252526"
     transform="translate(681,549)"
     id="path150"
     style="fill:#f29400;fill-opacity:1" />
  <path
     d="M0 0 C1.32 0.33 2.64 0.66 4 1 C3.8125 2.8125 3.8125 2.8125 3 5 C0.4375 6.75 0.4375 6.75 -2 8 C-1.34 5.36 -0.68 2.72 0 0 Z "
     fill="#D6D6D5"
     transform="translate(650,501)"
     id="path151" />
  <path
     d="M0 0 C0.33 0.66 0.66 1.32 1 2 C1.66 2.33 2.32 2.66 3 3 C0.25 9.875 0.25 9.875 -2 11 C-1.125 3.375 -1.125 3.375 0 0 Z "
     fill="#D1D2D1"
     transform="translate(679,393)"
     id="path152" />
  <path
     d="M0 0 C0.99 0 1.98 0 3 0 C2.34 3.63 1.68 7.26 1 11 C0.67 11 0.34 11 0 11 C-1.28571429 3.57142857 -1.28571429 3.57142857 0 0 Z "
     fill="#E2E2E2"
     transform="translate(751,693)"
     id="path156" />
  <path
     d="M0 0 C4.455 0.99 4.455 0.99 9 2 C7.3125 3.625 7.3125 3.625 5 5 C2.25 4.1875 2.25 4.1875 0 3 C0 2.01 0 1.02 0 0 Z "
     fill="#E3E3E3"
     transform="translate(552,591)"
     id="path157" />
  <path
     d="M0 0 C2.49388574 4.98777148 1.88836125 6.66983248 1 12 C0.34 12 -0.32 12 -1 12 C-0.67 8.04 -0.34 4.08 0 0 Z "
     fill="#F2F2F2"
     transform="translate(693,539)"
     id="path160" />
  <path
     d="M0 0 C0.66 0.33 1.32 0.66 2 1 C1.34 4.3 0.68 7.6 0 11 C-2 8 -2 8 -1.6875 4.9375 C-1 2 -1 2 0 0 Z "
     fill="#E3E3E3"
     transform="translate(633,487)"
     id="path166" />
  <path
     d="M0 0 C0.66 0.33 1.32 0.66 2 1 C1.34 3.97 0.68 6.94 0 10 C-0.66 9.34 -1.32 8.68 -2 8 C-1.69347955 5.0574037 -1.32728846 2.65457692 0 0 Z "
     fill="#DFDFDF"
     transform="translate(637,473)"
     id="path167" />
  <path
     d="M0 0 C1.125 3.75 1.125 3.75 0 6 C-0.66 6 -1.32 6 -2 6 C-2.33 6.66 -2.66 7.32 -3 8 C-3.33 6.35 -3.66 4.7 -4 3 C-2.68 2.01 -1.36 1.02 0 0 Z "
     fill="#EEEDED"
     transform="translate(673,433)"
     id="path168" />
  <path
     d="M0 0 C4.62 0 9.24 0 14 0 C12.68 1.32 11.36 2.64 10 4 C10 3.01 10 2.02 10 1 C6.7 1 3.4 1 0 1 C0 0.67 0 0.34 0 0 Z "
     fill="#D7D7D5"
     transform="translate(398,593)"
     id="path177" />
  <path
     d="M0 0 C2.31 0.33 4.62 0.66 7 1 C7 1.99 7 2.98 7 4 C4.36 3.34 1.72 2.68 -1 2 C-0.67 1.34 -0.34 0.68 0 0 Z "
     fill="#DFDFDF"
     transform="translate(392,488)"
     id="path180" />
  <path
     d="M0 0 C0.99 0.33 1.98 0.66 3 1 C1.68 2.32 0.36 3.64 -1 5 C-1.99 4.34 -2.98 3.68 -4 3 C-2.1875 1.4375 -2.1875 1.4375 0 0 Z M-6 4 C-5.34 4.33 -4.68 4.66 -4 5 C-4.99 5 -5.98 5 -7 5 C-6.67 4.67 -6.34 4.34 -6 4 Z "
     fill="#E1E1E1"
     transform="translate(695,375)"
     id="path181" />
  <path
     d="M0 0 C1.98 0.66 3.96 1.32 6 2 C6 3.32 6 4.64 6 6 C3.53199953 4.84826645 1.95216435 3.95216435 0 2 C0 1.34 0 0.68 0 0 Z "
     fill="#DBDAD9"
     transform="translate(446,608)"
     id="path185" />
  <path
     d="M0 0 C0.66 0.33 1.32 0.66 2 1 C2.625 3.0625 2.625 3.0625 3 5 C0.69 5.33 -1.62 5.66 -4 6 C-3.525625 5.566875 -3.05125 5.13375 -2.5625 4.6875 C-0.76313043 2.97690387 -0.76313043 2.97690387 0 0 Z "
     fill="#343434"
     transform="translate(662,562)"
     id="path187"
     style="fill:#f29400;fill-opacity:1" />
  <path
     d="M0 0 C2.76223278 2.76223278 2.57856291 5.20706617 3 9 C2.01 9 1.02 9 0 9 C0 6.03 0 3.06 0 0 Z "
     fill="#363736"
     transform="translate(642,541)"
     id="path193"
     style="fill:#f29400;fill-opacity:1" />
  <path
     d="M0 0 C2.59482129 2.59482129 2.69990302 4.39883625 3 8 C2.34 8.66 1.68 9.32 1 10 C0.63883954 8.5225254 0.28624952 7.04295325 -0.0625 5.5625 C-0.25972656 4.73878906 -0.45695312 3.91507812 -0.66015625 3.06640625 C-0.82837891 2.04353516 -0.82837891 2.04353516 -1 1 C-0.67 0.67 -0.34 0.34 0 0 Z "
     fill="#3B3B3B"
     transform="translate(446,497)"
     id="path195"
     style="fill:#f29400;fill-opacity:1" />
  <path
     d="M0 0 C0.33 0.99 0.66 1.98 1 3 C-0.98 3.66 -2.96 4.32 -5 5 C-4.625 3.0625 -4.625 3.0625 -4 1 C-2 0 -2 0 0 0 Z "
     fill="#E1E1E1"
     transform="translate(384,608)"
     id="path203" />
  <path
     d="M0 0 C-0.33 0.99 -0.66 1.98 -1 3 C-1.33 2.34 -1.66 1.68 -2 1 C-4.475 2.485 -4.475 2.485 -7 4 C-7.33 3.01 -7.66 2.02 -8 1 C-5.29120665 -0.35439668 -2.99066732 -0.06501451 0 0 Z "
     fill="#EBEBEB"
     transform="translate(642,596)"
     id="path204" />
  <path
     d="M0 0 C0 0.66 0 1.32 0 2 C-3 4 -3 4 -5 5 C-7.125 4.0625 -7.125 4.0625 -9 3 C-2.25 0 -2.25 0 0 0 Z "
     fill="#D1D0D0"
     transform="translate(448,593)"
     id="path205" />
  <path
     d="M0 0 C1.74627478 2.61941217 2.38722388 4.03824877 3 7 C2.01 7 1.02 7 0 7 C0 6.34 0 5.68 0 5 C-0.66 5 -1.32 5 -2 5 C-1.34 3.35 -0.68 1.7 0 0 Z "
     fill="#DFDFDF"
     transform="translate(517,558)"
     id="path207" />
  <path
     d="M0 0 C0.33 0.66 0.66 1.32 1 2 C1.66 2.33 2.32 2.66 3 3 C1.84826645 5.46800047 0.95216435 7.04783565 -1 9 C-2.25541557 5.23375329 -1.37061958 3.62811066 0 0 Z "
     fill="#D4D4D4"
     transform="translate(734,545)"
     id="path209" />
  <path
     d="M0 0 C0.66 1.32 1.32 2.64 2 4 C0.35 5.65 -1.3 7.3 -3 9 C-2.01 6.03 -1.02 3.06 0 0 Z "
     fill="#D4D3D4"
     transform="translate(738,536)"
     id="path210" />
  <path
     d="M0 0 C0.66 0 1.32 0 2 0 C2.33 0.99 2.66 1.98 3 3 C2.01 4.485 2.01 4.485 1 6 C0.34 5.67 -0.32 5.34 -1 5 C-0.67 3.35 -0.34 1.7 0 0 Z "
     fill="#242223"
     transform="translate(550,539)"
     id="path211"
     style="fill:#f29400;fill-opacity:1" />
  <path
     style="fill:#ffffff;fill-opacity:1"
     d="m 286.05313,436.0994 1.75492,94.76607 -20.18166,84.2365 78.97172,150.92374 390.4713,-104.41817 32.46615,-198.30677 -12.28449,-68.44216 -64.05484,-20.18166 -28.9563,33.34362 -6.14224,-42.99572 -79.84919,-47.38303 -20.18166,12.28449 -23.69152,-48.2605 -119.33505,169.35047 -11.40702,22.81405 -31.58869,-28.95629"
     id="path213" />
  <path
     style="fill:#ffffff;fill-opacity:1"
     d="m 379.72179,322.63943 37.22763,109.20104 13.65013,102.99644 -81.90078,-49.63684"
     id="path214" />
  <path
     style="fill:#ffffff;fill-opacity:1"
     d="M 471.54994,356.1443 399.57653,420.67218 385.9264,318.91667 383.44456,497.60928 565.85993,469.0681"
     id="path215" />
  <path
     style="fill:#ffffff;fill-opacity:1"
     d="M 471.54994,356.1443 399.57653,420.67218 385.9264,318.91667 383.44456,497.60928 565.85993,469.0681"
     id="path216" />
  <path
     style="fill:#ffffff;fill-opacity:1"
     d="m 393.37192,241.97958 28.54119,85.62354 53.35959,-57.08236 -8.68644,253.14786 -95.55091,-67.00973"
     id="path217" />
  <path
     style="fill:#ffffff;fill-opacity:1"
     d="m 596.88295,575.7873 -136.5013,31.02302 17.3729,18.61381"
     id="path218" />
</svg>
